<svg width="604" height="2058" viewBox="0 0 604 2058" fill="none" xmlns="http://www.w3.org/2000/svg">
<path d="M118.73 1042.89C-137.731 1811.63 1456.44 2064.05 -59.5613 2056.76C-1575.56 2049.47 -205.77 1226.29 -875.984 1222.1C-1546.2 1217.9 -1426.62 1348.71 -858.197 422.966C-289.775 -502.778 376.093 273.359 118.73 1042.89Z" stroke="#E7DDCA" stroke-miterlimit="10"/>
<path d="M-865.183 1212.59C-1518.91 1211.92 -1403.58 1339.04 -843.003 439.268C-282.427 -460.508 355.625 266.954 97.199 1033.2C-161.227 1799.44 1374.24 2047.3 -81.991 2038.86C-1538.22 2030.43 -210.024 1214.13 -865.183 1212.59Z" stroke="#E7DDCA" stroke-miterlimit="10"/>
<path d="M-852.523 1201.55C-1488 1203.9 -1380.16 1328.61 -828.336 455.597C-276.508 -417.416 336.11 259.802 77.2219 1022.22C-181.666 1784.64 1292.08 2030.59 -101.755 2021.36C-1495.59 2012.13 -214.507 1201.73 -852.523 1201.55Z" stroke="#E7DDCA" stroke-miterlimit="10"/>
<path d="M-837.931 1192.43C-1457.11 1195.3 -1356.51 1318.42 -813.714 471.884C-270.915 -374.649 316.252 252.87 54.4978 1013.58C-207.256 1774.29 1209.32 2013.27 -122.728 2003.78C-1454.77 1994.3 -218.751 1189.57 -837.931 1192.43Z" stroke="#E7DDCA" stroke-miterlimit="10"/>
<path d="M-824.448 1182.21C-1426.22 1187.26 -1334.25 1306.84 -799.07 488.193C-263.89 -330.448 296.15 245.13 33.8956 1003.12C-228.358 1761.1 1128.62 1995.77 -142.481 1985.17C-1413.58 1974.58 -222.41 1178 -824.448 1182.21Z" stroke="#E7DDCA" stroke-miterlimit="10"/>
<path d="M-812.201 1175.53C-1395.07 1181.44 -1308.6 1300.03 -783.314 507.565C-258.026 -284.899 277.144 240.996 11.7406 996.995C-253.663 1752.99 1045.78 1982.6 -164.37 1970.89C-1374.52 1959.19 -227.232 1167.77 -812.201 1175.53Z" stroke="#E7DDCA" stroke-miterlimit="10"/>
<path d="M-798.092 1161.75C-1364.45 1170.63 -1285.79 1287.06 -769.227 520.818C-252.667 -245.429 257.333 231.043 -10.0379 984.546C-277.409 1738.05 963.324 1963.1 -185.6 1950.57C-1334.53 1938.03 -231.73 1152.86 -798.092 1161.75Z" stroke="#E7DDCA" stroke-miterlimit="10"/>
<path d="M-784.899 1151.24C-1332.35 1160.98 -1262.12 1276.89 -754.591 537.121C-247.059 -202.646 237.487 224.118 -31.25 974.6C-299.987 1725.08 881.429 1946.1 -206.565 1933.01C-1294.56 1919.91 -235.961 1140.72 -784.899 1151.24Z" stroke="#E7DDCA" stroke-miterlimit="10"/>
<path d="M-771.391 1141.05C-1302.64 1154.04 -1238.71 1266.47 -739.02 552.671C-239.331 -161.126 218.879 216.175 -51.8273 964.164C-322.533 1712.15 800.166 1928.62 -227.141 1913.59C-1254.45 1898.56 -240.158 1128.61 -771.391 1141.05Z" stroke="#E7DDCA" stroke-miterlimit="10"/>
<path d="M-758.263 1131.05C-1271.51 1145.69 -1215.66 1255.69 -725.332 569.73C-235.005 -116.231 199.287 208.945 -74.2892 955.236C-347.866 1701.53 717.334 1911.84 -248.492 1897.35C-1214.32 1882.87 -244.718 1116.15 -758.263 1131.05Z" stroke="#E7DDCA" stroke-miterlimit="10"/>
<path d="M-745.058 1120.55C-1240.88 1136.83 -1190.57 1246.94 -710.383 585.782C-230.194 -75.3714 178.551 202.818 -94.9464 946.409C-368.444 1690 635.119 1895.67 -268.602 1880.66C-1172.32 1865.65 -249.239 1104.28 -745.058 1120.55Z" stroke="#E7DDCA" stroke-miterlimit="10"/>
<path d="M-731.561 1110.36C-1209.98 1128.83 -1168.02 1235.67 -696.006 601.839C-223.993 -31.9902 158.468 195.088 -117.849 935.35C-394.166 1675.61 551.242 1877.29 -291.296 1863.09C-1133.83 1848.89 -253.446 1092.17 -731.561 1110.36Z" stroke="#E7DDCA" stroke-miterlimit="10"/>
<path d="M-717.178 1098.79C-1177.59 1118.91 -1142.85 1223.61 -679.314 617.379C-215.779 11.1435 139.192 188.161 -138.514 925.955C-416.22 1663.75 470.424 1861.97 -310.477 1843.94C-1091.38 1825.92 -257.972 1079.73 -717.178 1098.79Z" stroke="#E7DDCA" stroke-miterlimit="10"/>
<path d="M-705.235 1089.86C-262.232 1067.56 -1052.92 1808.57 -332.363 1826.62C388.193 1844.68 -439.742 1651.56 -160.062 916.248C119.618 180.933 -211.396 54.9648 -666.208 634.984C-1121.02 1215 -1148.24 1112.16 -705.235 1089.86Z" stroke="#E7DDCA" stroke-miterlimit="10"/>
</svg>
