<svg width="52" height="132" viewBox="0 0 52 132" fill="none" xmlns="http://www.w3.org/2000/svg">
<path fill-rule="evenodd" clip-rule="evenodd" d="M36.4 41.5999L51.9999 25.9999L41.5999 15.5999L26 31.1999L10.4 15.6L4.79258e-05 26L15.6 41.5999L15.5999 41.5999L25.9999 51.9999L26 51.9999L26 52L36.4 41.6L36.4 41.5999Z" fill="#E7DDCA"/>
<path fill-rule="evenodd" clip-rule="evenodd" d="M36.4 81.3108L51.9999 65.7109L41.5999 55.3109L26 70.9108L10.4 55.3109L5.06232e-05 65.7109L15.6 81.3108L15.5999 81.3109L25.9999 91.7108L26 91.7108L26.0001 91.7109L36.4 81.3109L36.4 81.3108Z" fill="#E7DDCA"/>
<path fill-rule="evenodd" clip-rule="evenodd" d="M36.4 121.022L51.9999 105.422L41.5999 95.0218L26 110.622L10.4 95.0218L4.79258e-05 105.422L15.6 121.022L15.5999 121.022L25.9999 131.422L26 131.422L26 131.422L36.4 121.022L36.4 121.022Z" fill="#E7DDCA"/>
</svg>
